<svg width="8" height="8" viewBox="0 0 8 8" fill="none" xmlns="http://www.w3.org/2000/svg">
<path d="M4.00089 1.9489C2.86581 1.9489 1.95025 2.86467 1.95025 4C1.95025 5.13533 2.86581 6.0511 4.00089 6.0511C5.13597 6.0511 6.05153 5.13533 6.05153 4C6.05153 2.86467 5.13597 1.9489 4.00089 1.9489ZM4.00089 5.33348C3.26737 5.33348 2.66771 4.73547 2.66771 4C2.66771 3.26453 3.26559 2.66652 4.00089 2.66652C4.7362 2.66652 5.33408 3.26453 5.33408 4C5.33408 4.73547 4.73441 5.33348 4.00089 5.33348ZM6.61372 1.865C6.61372 2.13098 6.39955 2.34341 6.13542 2.34341C5.86949 2.34341 5.65711 2.1292 5.65711 1.865C5.65711 1.6008 5.87128 1.38659 6.13542 1.38659C6.39955 1.38659 6.61372 1.6008 6.61372 1.865ZM7.97189 2.35055C7.94155 1.7097 7.7952 1.14203 7.32582 0.674328C6.85823 0.206627 6.29069 0.0602477 5.64997 0.0281156C4.98963 -0.00937183 3.01037 -0.00937183 2.35003 0.0281156C1.7111 0.0584626 1.14356 0.204842 0.674177 0.672543C0.204796 1.14024 0.0602342 1.70791 0.0281093 2.34877C-0.00936977 3.00926 -0.00936977 4.98895 0.0281093 5.64945C0.0584495 6.2903 0.204796 6.85797 0.674177 7.32567C1.14356 7.79337 1.70931 7.93975 2.35003 7.97188C3.01037 8.00937 4.98963 8.00937 5.64997 7.97188C6.29069 7.94154 6.85823 7.79516 7.32582 7.32567C7.79342 6.85797 7.93977 6.2903 7.97189 5.64945C8.00937 4.98895 8.00937 3.01105 7.97189 2.35055ZM7.1188 6.35814C6.97959 6.70802 6.7101 6.97757 6.35851 7.1186C5.83201 7.32746 4.58271 7.27926 4.00089 7.27926C3.41907 7.27926 2.16799 7.32567 1.64328 7.1186C1.29347 6.97936 1.02398 6.70981 0.882989 6.35814C0.674177 5.83153 0.722365 4.58195 0.722365 4C0.722365 3.41805 0.675962 2.16669 0.882989 1.64186C1.0222 1.29198 1.29169 1.02243 1.64328 0.881401C2.16977 0.672543 3.41907 0.720741 4.00089 0.720741C4.58271 0.720741 5.8338 0.674328 6.35851 0.881401C6.70831 1.02064 6.9778 1.29019 7.1188 1.64186C7.32761 2.16847 7.27942 3.41805 7.27942 4C7.27942 4.58195 7.32761 5.83331 7.1188 6.35814Z" fill="#808084"/>
</svg>
