<svg width="10" height="8" viewBox="0 0 10 8" fill="none" xmlns="http://www.w3.org/2000/svg"> 
<path d="M8.97211 1.99374C8.97845 2.08124 8.97845 2.16875 8.97845 2.25625C8.97845 4.92499 6.91628 8 3.14722 8C1.98604 8 0.907367 7.66874 0 7.09376C0.164981 7.1125 0.323595 7.11875 0.494924 7.11875C1.45303 7.11875 2.33503 6.80001 3.03935 6.25626C2.13833 6.2375 1.38325 5.65625 1.12309 4.85625C1.25 4.87499 1.3769 4.88749 1.51016 4.88749C1.69417 4.88749 1.87819 4.86248 2.0495 4.81875C1.11041 4.63124 0.406076 3.81875 0.406076 2.8375V2.81251C0.678909 2.96251 0.996195 3.05625 1.33247 3.06874C0.780433 2.70623 0.418771 2.08749 0.418771 1.38749C0.418771 1.01249 0.520275 0.668743 0.697952 0.368741C1.70684 1.59374 3.22335 2.39373 4.92385 2.48124C4.89213 2.33124 4.87309 2.17501 4.87309 2.01875C4.87309 0.90624 5.7868 1.40906e-08 6.92259 1.40906e-08C7.51269 1.40906e-08 8.04568 0.243749 8.42005 0.6375C8.88324 0.550004 9.3274 0.381246 9.72082 0.150001C9.56851 0.618762 9.24492 1.01251 8.8198 1.26249C9.23224 1.21877 9.63199 1.10624 10 0.950007C9.72086 1.34999 9.37185 1.70623 8.97211 1.99374Z" fill="white"/> 
</svg>
